# xmcd
#
# Track frame offsets: 
#        150
#        13193
#        35338
#        48084
#        62232
#        76586
#        91170
#        101973
#        115857
#        130842
#        147459
#        165281
#        187025
#        207139
#        220201
#        235774
#        257343
#        274226
#        290940
#        308640
#        327205
#
# Disc length: 4596 seconds
#
# Revision: 0
# Processed by: cddbd v1.5.2PL0 Copyright (c) Steve Scherf et al.
# Submitted via: ExactAudioCopy v1.0b3
#
DISCID=2911f215
DTITLE=小林旭 - GOLDEN☆BEST 小林旭 ヒット全曲集 Disc 2 MHCL-1473-4
DYEAR=1900
DGENRE=Blues
TTITLE0=カチューシャの唄
TTITLE1=ゴンドラの唄
TTITLE2=波浮の港
TTITLE3=長崎物語
TTITLE4=東京の花売娘 
TTITLE5=憧れのハワイ航路
TTITLE6=野球小僧 
TTITLE7=鈴懸の径 
TTITLE8=白い花の咲く頃
TTITLE9=雪の降る街を 
TTITLE10=君恋し
TTITLE11=北上夜曲 
TTITLE12=惜別の唄 
TTITLE13=北帰行 
TTITLE14=川は流れる
TTITLE15=琵琶湖周航の歌
TTITLE16=アカシアの雨がやむとき
TTITLE17=夜明けのうた
TTITLE18=知床旅情 
TTITLE19=北へ帰ろう
TTITLE20=館山逍遙の歌
EXTD=
EXTT0=
EXTT1=
EXTT2=
EXTT3=
EXTT4=
EXTT5=
EXTT6=
EXTT7=
EXTT8=
EXTT9=
EXTT10=
EXTT11=
EXTT12=
EXTT13=
EXTT14=
EXTT15=
EXTT16=
EXTT17=
EXTT18=
EXTT19=
EXTT20=
PLAYORDER=
